# WaveFront *.obj file (generated by Autodesk ATF)

mtllib button holder.mtl

g Body2

v 57.300000 -108.000000 12.800000
v 57.300000 -108.000000 19.200000
v 64.700000 -108.000000 19.200000
v 64.700000 -108.000000 12.800000
v 65.600000 -108.000000 20.600000
v 56.400000 -108.000000 20.600000
v 56.400000 -108.000000 11.400000
v 65.600000 -108.000000 11.400000
v 57.300000 -103.500000 19.200000
v 59.300000 -103.500000 19.200000
v 59.300000 -104.000000 19.200000
v 62.700000 -104.000000 19.200000
v 62.700000 -103.500000 19.200000
v 64.700000 -103.500000 19.200000
v 57.300000 -103.500000 12.800000
v 57.300000 -103.500000 14.800000
v 57.300000 -104.000000 14.800000
v 57.300000 -104.000000 17.200000
v 57.300000 -103.500000 17.200000
v 56.400000 -103.500000 20.600000
v 56.400000 -103.500000 18.500000
v 56.400000 -105.500000 18.500000
v 56.400000 -105.500000 13.500000
v 56.400000 -103.500000 13.500000
v 56.400000 -103.500000 11.400000
v 65.600000 -103.500000 20.600000
v 55.400000 -104.500000 14.500000
v 55.400000 -104.500000 17.500000
v 65.600000 -103.500000 13.500000
v 66.600000 -104.500000 14.500000
v 65.600000 -105.500000 13.500000
v 66.600000 -104.500000 17.500000
v 65.600000 -105.500000 18.500000
v 65.600000 -103.500000 18.500000
v 59.300000 -104.000000 14.800000
v 59.300000 -104.000000 12.800000
v 62.700000 -104.000000 12.800000
v 62.700000 -104.000000 14.800000
v 64.700000 -104.000000 14.800000
v 64.700000 -104.000000 17.200000
v 62.700000 -104.000000 17.200000
v 59.300000 -104.000000 17.200000
v 64.700000 -103.500000 17.200000
v 62.700000 -103.500000 17.200000
v 62.700000 -103.500000 14.800000
v 64.700000 -103.500000 14.800000
v 62.700000 -103.500000 12.800000
v 59.300000 -103.500000 14.800000
v 59.300000 -103.500000 12.800000
v 59.300000 -103.500000 17.200000
v 64.700000 -103.500000 12.800000
v 65.600000 -103.500000 11.400000
vt 0.320000 0.370000 0.000000
vt 0.320000 -0.370000 0.000000
vt 0.460000 -0.460000 0.000000
vt -0.320000 -0.370000 0.000000
vt -0.460000 -0.460000 0.000000
vt -0.320000 0.370000 0.000000
vt -0.460000 0.460000 0.000000
vt 0.460000 0.460000 0.000000
vt 0.740000 -0.250000 0.000000
vt 0.740000 0.200000 0.000000
vt 0.540000 -0.200000 0.000000
vt 0.000000 0.200000 0.000000
vt 0.200000 -0.200000 0.000000
vt 0.000000 -0.250000 0.000000
vt 0.200000 -0.250000 0.000000
vt 0.540000 -0.250000 0.000000
vt 0.640000 -0.250000 0.000000
vt 0.640000 0.200000 0.000000
vt 0.440000 -0.200000 0.000000
vt 0.000000 0.200000 0.000000
vt 0.200000 -0.200000 0.000000
vt 0.000000 -0.250000 0.000000
vt 0.200000 -0.250000 0.000000
vt 0.440000 -0.250000 0.000000
vt 0.920000 -0.250000 0.000000
vt 0.920000 0.200000 0.000000
vt 0.710000 -0.050000 0.000000
vt 0.000000 0.200000 0.000000
vt 0.210000 -0.050000 0.000000
vt 0.000000 -0.250000 0.000000
vt 0.210000 -0.250000 0.000000
vt 0.710000 -0.250000 0.000000
vt 0.920000 0.200000 0.000000
vt 0.000000 0.200000 0.000000
vt 0.920000 -0.250000 0.000000
vt 0.000000 -0.250000 0.000000
vt 0.100000 0.141421 0.000000
vt -0.000000 0.000000 0.000000
vt 0.200000 0.000000 0.000000
vt 0.400000 0.141421 0.000000
vt 0.100000 0.141421 0.000000
vt 0.500000 0.000000 0.000000
vt -0.000000 0.000000 0.000000
vt 0.100000 0.141421 0.000000
vt -0.000000 -0.000000 0.000000
vt 0.200000 -0.000000 0.000000
vt 0.400000 0.141421 0.000000
vt 0.100000 0.141421 0.000000
vt 0.500000 -0.000000 0.000000
vt -0.000000 0.000000 0.000000
vt 0.000000 0.000000 0.000000
vt -0.100000 0.141421 0.000000
vt -0.200000 0.000000 0.000000
vt -0.500000 0.000000 0.000000
vt 0.000000 0.000000 0.000000
vt -0.400000 0.141421 0.000000
vt -0.100000 0.141421 0.000000
vt 0.000000 0.000000 0.000000
vt -0.100000 0.141421 0.000000
vt -0.200000 0.000000 0.000000
vt -0.500000 0.000000 0.000000
vt 0.000000 0.000000 0.000000
vt -0.400000 0.141421 0.000000
vt -0.100000 0.141421 0.000000
vt 0.320000 -0.170000 0.000000
vt 0.120000 0.170000 0.000000
vt 0.120000 -0.170000 0.000000
vt -0.120000 0.170000 0.000000
vt -0.120000 -0.170000 0.000000
vt -0.320000 0.170000 0.000000
vt -0.320000 -0.170000 0.000000
vt 0.320000 0.170000 0.000000
vt 0.120000 0.370000 0.000000
vt -0.120000 0.370000 0.000000
vt -0.120000 -0.370000 0.000000
vt 0.120000 -0.370000 0.000000
vt 0.000000 0.200000 0.000000
vt 0.200000 0.200000 0.000000
vt 0.000000 0.250000 0.000000
vt 0.200000 0.250000 0.000000
vt -0.000000 0.200000 0.000000
vt 0.200000 0.200000 0.000000
vt -0.000000 0.250000 0.000000
vt 0.200000 0.250000 0.000000
vt -0.000000 0.200000 0.000000
vt 0.200000 0.200000 0.000000
vt -0.000000 0.250000 0.000000
vt 0.200000 0.250000 0.000000
vt 0.000000 0.200000 0.000000
vt 0.200000 0.200000 0.000000
vt 0.000000 0.250000 0.000000
vt 0.200000 0.250000 0.000000
vt 0.000000 0.200000 0.000000
vt 0.200000 0.200000 0.000000
vt 0.000000 0.250000 0.000000
vt 0.200000 0.250000 0.000000
vt 0.000000 0.200000 0.000000
vt 0.200000 0.200000 0.000000
vt 0.000000 0.250000 0.000000
vt 0.200000 0.250000 0.000000
vt 0.000000 0.200000 0.000000
vt 0.200000 0.200000 0.000000
vt 0.000000 0.250000 0.000000
vt 0.200000 0.250000 0.000000
vt 0.000000 0.200000 0.000000
vt 0.200000 0.200000 0.000000
vt 0.000000 0.250000 0.000000
vt 0.200000 0.250000 0.000000
vt -0.120000 0.170000 0.000000
vt 0.120000 0.170000 0.000000
vt -0.120000 0.370000 0.000000
vt 0.120000 0.370000 0.000000
vt -0.250000 0.460000 0.000000
vt 0.250000 0.460000 0.000000
vt 0.320000 0.370000 0.000000
vt 0.460000 0.460000 0.000000
vt 0.320000 0.170000 0.000000
vt 0.460000 -0.460000 0.000000
vt 0.320000 -0.170000 0.000000
vt 0.320000 -0.370000 0.000000
vt -0.320000 0.170000 0.000000
vt -0.120000 -0.170000 0.000000
vt 0.120000 -0.170000 0.000000
vt -0.320000 0.370000 0.000000
vt -0.460000 0.460000 0.000000
vt -0.460000 -0.460000 0.000000
vt -0.320000 -0.170000 0.000000
vt -0.320000 -0.370000 0.000000
vt -0.250000 -0.460000 0.000000
vt -0.120000 -0.370000 0.000000
vt 0.250000 -0.460000 0.000000
vt 0.120000 -0.370000 0.000000
vt 0.740000 -0.250000 0.000000
vt 0.740000 0.200000 0.000000
vt 0.540000 -0.200000 0.000000
vt 0.000000 0.200000 0.000000
vt 0.200000 -0.200000 0.000000
vt 0.000000 -0.250000 0.000000
vt 0.200000 -0.250000 0.000000
vt 0.540000 -0.250000 0.000000
vt 0.640000 -0.250000 0.000000
vt 0.640000 0.200000 0.000000
vt 0.440000 -0.200000 0.000000
vt 0.000000 0.200000 0.000000
vt 0.200000 -0.200000 0.000000
vt -0.000000 -0.250000 0.000000
vt 0.200000 -0.250000 0.000000
vt 0.440000 -0.250000 0.000000
vt 0.920000 -0.250000 0.000000
vt 0.920000 0.200000 0.000000
vt 0.710000 -0.050000 0.000000
vt 0.000000 0.200000 0.000000
vt 0.210000 -0.050000 0.000000
vt 0.000000 -0.250000 0.000000
vt 0.210000 -0.250000 0.000000
vt 0.710000 -0.250000 0.000000
vt 0.920000 0.200000 0.000000
vt 0.000000 0.200000 0.000000
vt 0.920000 -0.250000 0.000000
vt 0.000000 -0.250000 0.000000
vn 0.000000 -0.100000 0.000000
vn 0.000000 -0.100000 0.000000
vn 0.000000 -0.100000 0.000000
vn 0.000000 -0.100000 0.000000
vn 0.000000 -0.100000 0.000000
vn 0.000000 -0.100000 0.000000
vn 0.000000 -0.100000 0.000000
vn 0.000000 -0.100000 0.000000
vn 0.000000 0.000000 -0.100000
vn 0.000000 0.000000 -0.100000
vn 0.000000 0.000000 -0.100000
vn 0.000000 0.000000 -0.100000
vn 0.000000 0.000000 -0.100000
vn 0.000000 0.000000 -0.100000
vn 0.000000 0.000000 -0.100000
vn 0.000000 0.000000 -0.100000
vn 0.100000 0.000000 0.000000
vn 0.100000 0.000000 0.000000
vn 0.100000 0.000000 0.000000
vn 0.100000 0.000000 0.000000
vn 0.100000 0.000000 0.000000
vn 0.100000 0.000000 0.000000
vn 0.100000 0.000000 0.000000
vn 0.100000 0.000000 0.000000
vn -0.100000 0.000000 0.000000
vn -0.100000 0.000000 0.000000
vn -0.100000 0.000000 0.000000
vn -0.100000 0.000000 0.000000
vn -0.100000 0.000000 0.000000
vn -0.100000 0.000000 0.000000
vn -0.100000 0.000000 0.000000
vn -0.100000 0.000000 0.000000
vn 0.000000 0.000000 0.100000
vn 0.000000 0.000000 0.100000
vn 0.000000 0.000000 0.100000
vn 0.000000 0.000000 0.100000
vn -0.070711 0.000000 -0.070711
vn -0.070711 0.000000 -0.070711
vn -0.070711 0.000000 -0.070711
vn -0.070711 -0.070711 0.000000
vn -0.070711 -0.070711 0.000000
vn -0.070711 -0.070711 0.000000
vn -0.070711 -0.070711 0.000000
vn -0.070711 0.000000 0.070711
vn -0.070711 0.000000 0.070711
vn -0.070711 0.000000 0.070711
vn -0.070711 0.070711 0.000000
vn -0.070711 0.070711 0.000000
vn -0.070711 0.070711 0.000000
vn -0.070711 0.070711 0.000000
vn 0.070711 0.000000 -0.070711
vn 0.070711 0.000000 -0.070711
vn 0.070711 0.000000 -0.070711
vn 0.070711 -0.070711 0.000000
vn 0.070711 -0.070711 0.000000
vn 0.070711 -0.070711 0.000000
vn 0.070711 -0.070711 0.000000
vn 0.070711 0.000000 0.070711
vn 0.070711 0.000000 0.070711
vn 0.070711 0.000000 0.070711
vn 0.070711 0.070711 0.000000
vn 0.070711 0.070711 0.000000
vn 0.070711 0.070711 0.000000
vn 0.070711 0.070711 0.000000
vn 0.000000 -0.100000 0.000000
vn 0.000000 -0.100000 0.000000
vn 0.000000 -0.100000 0.000000
vn 0.000000 -0.100000 0.000000
vn 0.000000 -0.100000 0.000000
vn 0.000000 -0.100000 0.000000
vn 0.000000 -0.100000 0.000000
vn 0.000000 -0.100000 0.000000
vn 0.000000 -0.100000 0.000000
vn 0.000000 -0.100000 0.000000
vn 0.000000 -0.100000 0.000000
vn 0.000000 -0.100000 0.000000
vn 0.000000 0.000000 0.100000
vn 0.000000 0.000000 0.100000
vn 0.000000 0.000000 0.100000
vn 0.000000 0.000000 0.100000
vn 0.000000 0.000000 -0.100000
vn 0.000000 0.000000 -0.100000
vn 0.000000 0.000000 -0.100000
vn 0.000000 0.000000 -0.100000
vn 0.100000 0.000000 0.000000
vn 0.100000 0.000000 0.000000
vn 0.100000 0.000000 0.000000
vn 0.100000 0.000000 0.000000
vn -0.100000 0.000000 0.000000
vn -0.100000 0.000000 0.000000
vn -0.100000 0.000000 0.000000
vn -0.100000 0.000000 0.000000
vn 0.100000 -0.000000 0.000000
vn 0.100000 -0.000000 0.000000
vn 0.100000 -0.000000 0.000000
vn 0.100000 -0.000000 0.000000
vn -0.100000 0.000000 0.000000
vn -0.100000 0.000000 0.000000
vn -0.100000 0.000000 0.000000
vn -0.100000 0.000000 0.000000
vn 0.000000 -0.000000 0.100000
vn 0.000000 -0.000000 0.100000
vn 0.000000 -0.000000 0.100000
vn 0.000000 -0.000000 0.100000
vn 0.000000 0.000000 -0.100000
vn 0.000000 0.000000 -0.100000
vn 0.000000 0.000000 -0.100000
vn 0.000000 0.000000 -0.100000
vn 0.000000 0.100000 0.000000
vn 0.000000 0.100000 0.000000
vn 0.000000 0.100000 0.000000
vn 0.000000 0.100000 0.000000
vn 0.000000 0.100000 0.000000
vn 0.000000 0.100000 0.000000
vn 0.000000 0.100000 0.000000
vn 0.000000 0.100000 0.000000
vn 0.000000 0.100000 0.000000
vn 0.000000 0.100000 0.000000
vn 0.000000 0.100000 0.000000
vn 0.000000 0.100000 0.000000
vn 0.000000 0.100000 0.000000
vn 0.000000 0.100000 0.000000
vn 0.000000 0.100000 0.000000
vn 0.000000 0.100000 0.000000
vn 0.000000 0.100000 0.000000
vn 0.000000 0.100000 0.000000
vn 0.000000 0.100000 0.000000
vn 0.000000 0.100000 0.000000
vn 0.000000 0.100000 0.000000
vn 0.000000 0.100000 0.000000
vn 0.000000 0.100000 0.000000
vn 0.000000 0.100000 0.000000
vn 0.000000 0.000000 0.100000
vn 0.000000 0.000000 0.100000
vn 0.000000 0.000000 0.100000
vn 0.000000 0.000000 0.100000
vn 0.000000 0.000000 0.100000
vn 0.000000 0.000000 0.100000
vn 0.000000 0.000000 0.100000
vn 0.000000 0.000000 0.100000
vn -0.100000 0.000000 0.000000
vn -0.100000 0.000000 0.000000
vn -0.100000 0.000000 0.000000
vn -0.100000 0.000000 0.000000
vn -0.100000 0.000000 0.000000
vn -0.100000 0.000000 0.000000
vn -0.100000 0.000000 0.000000
vn -0.100000 0.000000 0.000000
vn 0.100000 0.000000 0.000000
vn 0.100000 0.000000 0.000000
vn 0.100000 0.000000 0.000000
vn 0.100000 0.000000 0.000000
vn 0.100000 0.000000 0.000000
vn 0.100000 0.000000 0.000000
vn 0.100000 0.000000 0.000000
vn 0.100000 0.000000 0.000000
vn 0.000000 0.000000 -0.100000
vn 0.000000 0.000000 -0.100000
vn 0.000000 0.000000 -0.100000
vn 0.000000 0.000000 -0.100000
usemtl Steel_-_Satin
f 4/1/1 1/2/2 7/3/3
f 7/3/3 1/2/2 2/4/4
f 7/3/3 2/4/4 6/5/5
f 6/5/5 2/4/4 3/6/6
f 6/5/5 3/6/6 5/7/7
f 5/7/7 3/6/6 4/1/1
f 5/7/7 4/1/1 8/8/8
f 8/8/8 4/1/1 7/3/3
f 14/9/9 3/10/10 12/11/11
f 12/11/11 3/10/10 2/12/12
f 12/11/11 2/12/12 11/13/13
f 11/13/13 2/12/12 9/14/14
f 11/13/13 9/14/14 10/15/15
f 12/11/11 13/16/16 14/9/9
f 9/17/17 2/18/18 18/19/19
f 18/19/19 2/18/18 1/20/20
f 18/19/19 1/20/20 17/21/21
f 17/21/21 1/20/20 15/22/22
f 17/21/21 15/22/22 16/23/23
f 18/19/19 19/24/24 9/17/17
f 25/25/25 7/26/26 23/27/27
f 23/27/27 7/26/26 6/28/28
f 23/27/27 6/28/28 22/29/29
f 22/29/29 6/28/28 20/30/30
f 22/29/29 20/30/30 21/31/31
f 23/27/27 24/32/32 25/25/25
f 6/33/33 5/34/34 20/35/35
f 20/35/35 5/34/34 26/36/36
f 27/37/37 24/38/38 23/39/39
f 28/40/40 27/41/41 22/42/42
f 22/42/42 27/41/41 23/43/43
f 28/44/44 22/45/45 21/46/46
f 27/47/47 28/48/48 24/49/49
f 24/49/49 28/48/48 21/50/50
f 29/51/51 30/52/52 31/53/53
f 33/54/54 31/55/55 32/56/56
f 32/56/56 31/55/55 30/57/57
f 33/58/58 32/59/59 34/60/60
f 29/61/61 34/62/62 30/63/63
f 30/63/63 34/62/62 32/64/64
f 36/65/65 38/66/66 35/67/67
f 35/67/67 38/66/66 41/68/68
f 35/67/67 41/68/68 42/69/69
f 42/69/69 41/68/68 12/70/70
f 42/69/69 12/70/70 11/71/71
f 36/65/65 37/72/72 38/66/66
f 39/73/73 40/74/74 38/66/66
f 38/66/66 40/74/74 41/68/68
f 18/75/75 17/76/76 42/69/69
f 42/69/69 17/76/76 35/67/67
f 41/77/77 40/78/78 44/79/79
f 44/79/79 40/78/78 43/80/80
f 39/81/81 38/82/82 46/83/83
f 46/83/83 38/82/82 45/84/84
f 38/85/85 37/86/86 45/87/87
f 45/87/87 37/86/86 47/88/88
f 36/89/89 35/90/90 49/91/91
f 49/91/91 35/90/90 48/92/92
f 12/93/93 41/94/94 13/95/95
f 13/95/95 41/94/94 44/96/96
f 42/97/97 11/98/98 50/99/99
f 50/99/99 11/98/98 10/100/100
f 18/101/101 42/102/102 19/103/103
f 19/103/103 42/102/102 50/104/104
f 35/105/105 17/106/106 48/107/107
f 48/107/107 17/106/106 16/108/108
f 45/109/109 44/110/110 46/111/111
f 46/111/111 44/110/110 43/112/112
f 46/111/111 43/112/112 29/113/113
f 29/113/113 43/112/112 34/114/114
f 34/114/114 43/112/112 14/115/115
f 34/114/114 14/115/115 26/116/116
f 26/116/116 14/115/115 13/117/117
f 26/116/116 13/117/117 20/118/118
f 20/118/118 13/117/117 10/119/119
f 20/118/118 10/119/119 9/120/120
f 47/121/121 48/122/122 45/109/109
f 45/109/109 48/122/122 50/123/123
f 45/109/109 50/123/123 44/110/110
f 44/110/110 50/123/123 10/119/119
f 44/110/110 10/119/119 13/117/117
f 51/124/124 52/125/125 47/121/121
f 47/121/121 52/125/125 25/126/126
f 47/121/121 25/126/126 49/127/127
f 49/127/127 25/126/126 15/128/128
f 15/128/128 25/126/126 24/129/129
f 15/128/128 24/129/129 16/130/130
f 16/130/130 24/129/129 21/131/131
f 16/130/130 21/131/131 19/132/132
f 19/132/132 21/131/131 9/120/120
f 9/120/120 21/131/131 20/118/118
f 52/125/125 51/124/124 29/113/113
f 29/113/113 51/124/124 46/111/111
f 49/127/127 48/122/122 47/121/121
f 50/123/123 48/122/122 19/132/132
f 19/132/132 48/122/122 16/130/130
f 15/133/133 1/134/134 36/135/135
f 36/135/135 1/134/134 4/136/136
f 36/135/135 4/136/136 37/137/137
f 37/137/137 4/136/136 51/138/138
f 37/137/137 51/138/138 47/139/139
f 36/135/135 49/140/140 15/133/133
f 51/141/141 4/142/142 39/143/143
f 39/143/143 4/142/142 3/144/144
f 39/143/143 3/144/144 40/145/145
f 40/145/145 3/144/144 14/146/146
f 40/145/145 14/146/146 43/147/147
f 39/143/143 46/148/148 51/141/141
f 26/149/149 5/150/150 33/151/151
f 33/151/151 5/150/150 8/152/152
f 33/151/151 8/152/152 31/153/153
f 31/153/153 8/152/152 52/154/154
f 31/153/153 52/154/154 29/155/155
f 33/151/151 34/156/156 26/149/149
f 8/157/157 7/158/158 52/159/159
f 52/159/159 7/158/158 25/160/160
g Body1

# 52 vertices
# 160 texture params
# 160 normals
# 116 facets

# 2 groups
